<svg width="780" height="656" fill="none" xmlns="http://www.w3.org/2000/svg"><path d="M183.157 135.525c-10.088-3.006-17.049-14.38-18.893-30.861-.099-.885-.876-.885-.975 0-1.844 16.481-8.805 27.855-18.892 30.861-.54.162-.524 1.427.016 1.588 10.083 3.015 17.041 14.395 18.88 30.885.097.885.872.859.971-.026 1.844-16.484 8.805-27.858 18.893-30.864.539-.159.539-1.421 0-1.583ZM635.478 389.449c-13.003-3.952-21.977-18.907-24.355-40.577-.127-1.163-1.129-1.163-1.256 0-2.377 21.67-11.352 36.625-24.355 40.577-.696.213-.676 1.876.02 2.088 12.999 3.964 21.969 18.926 24.339 40.607.125 1.163 1.125 1.13 1.252-.033 2.378-21.674 11.352-36.629 24.355-40.581.696-.209.696-1.868 0-2.081Z" fill="#AEA8FF" stroke="#AEA8FF" stroke-width="4" stroke-linecap="round" stroke-linejoin="round"/><path d="M592.381 225.935c34.364-2.302 48.954-39.314 36.762-61.351-12.191-22.037-23.347-4.88-12.523 2.735 12.753 8.974 73.11 2.785 71.329-57.786M142.447 401.069 86 413.131m56.447 6.272-40.044 19.298m56.93-8.684-16.886 19.298" stroke="#222" stroke-width="4" stroke-linecap="round" stroke-linejoin="round"/><path d="m240.636 215.211-34.505 156.911c-4.907 37.968 31.842 68.509 72.254 81.763l165.996 31.667c42.217 8.053 81.96-22.223 85.655-64.782.102-1.18.195-2.345.324-3.523 1.123-10.325 6.901-64.204 9.148-100.125 2.237-35.775 3.224-89.732 3.398-100.096.02-1.185.075-2.346.112-3.53 1.375-43.689-46.856-91.202-90.352-87.426l-146.518 26.321c-33.887 2.942-61.151 29.086-65.512 62.82Z" fill="#3582E2"/><path d="M214.026 201.46c-.248 1.562-.48 3.105-.766 4.661-1.734 9.405-8.296 45.492-11.471 69.993-3.218 24.836-6.092 61.953-6.801 71.411-.114 1.518-.276 3.015-.428 4.53-3.97 39.684 22.665 76.098 61.807 84.255.876.182 1.747.359 2.62.555 7.917 1.775 50.304 11.231 79.337 16.792 29.991 5.744 76.681 13.205 84.311 14.417.733.117 1.44.244 2.172.371 39.073 6.803 75.583-21.433 78.864-60.917.078-.933.148-1.842.243-2.773.965-9.469 6.668-66.042 9.058-103.554 2.502-39.263 3.996-98.817 4.229-108.504.022-.927.065-1.822.105-2.748 1.697-39.95-31.575-72.611-71.416-70.259-1.27.075-2.521.159-3.793.203-9.332.32-51.274 1.841-78.686 4.247-26.263 2.306-64.264 7.597-74.006 8.978-1.578.224-3.143.393-4.726.577-36.059 4.196-64.956 31.911-70.653 67.765Z" fill="#3394FF"/><path d="M290.744 224.757c-.891 61.438 22.951 81.433 30.501 85.153.986.486 1.967-.208 2.111-1.297l11.088-83.619a2 2 0 0 1 1.983-1.737h31.224a1.993 1.993 0 0 1 1.989 2.217c-1.61 14.168-4.229 38.244-4.565 45.196-.05 1.029.788 1.746 1.813 1.642 31.447-3.203 48.837-32.1 54.171-47.661a2.045 2.045 0 0 1 1.927-1.394h33.747c1.399 0 2.37 1.385 1.844 2.681-7.742 19.072-26.571 52.956-50.779 63.206-1.845.781-1.99 3.934-.196 4.825 28.23 14.031 41.851 49.758 45.758 69.045.263 1.295-.812 2.437-2.126 2.305-13.507-1.358-35.715-3.648-40.755-4.375-.652-.094-1.078-.59-1.18-1.24-5.225-33.532-33.206-46.237-48.463-48.827-1.117-.189-2.118.64-2.213 1.768l-3.52 41.806c-.092 1.089-1.079 1.901-2.168 1.813-87.955-7.096-101.405-75.983-96.111-131.247a1.971 1.971 0 0 1 1.945-1.786c9.667-.135 25.604-.29 30.543-.097.876.035 1.445.747 1.432 1.623Z" fill="#fff" stroke="#fff" stroke-width="4" stroke-linejoin="round"/><path d="M281.122 323.333c14.628 11.915 34.799 20.115 62.197 22.32a1.986 1.986 0 0 0 2.135-1.816l3.52-41.806c.095-1.128 1.096-1.957 2.212-1.768 15.258 2.59 43.239 15.296 48.464 48.827.101.65.528 1.146 1.179 1.24 5.041.727 27.249 3.017 40.756 4.375 1.314.132 2.388-1.01 2.126-2.305-3.907-19.287-17.528-55.013-45.758-69.044-1.794-.892-1.649-4.045.196-4.826 24.208-10.25 43.037-44.134 50.778-63.206.527-1.296-.444-2.681-1.843-2.681h-33.747c-.874 0-1.643.566-1.927 1.394-5.334 15.561-22.724 44.458-54.172 47.661-1.024.104-1.862-.613-1.812-1.642.336-6.952 2.955-31.028 4.565-45.196a1.993 1.993 0 0 0-1.989-2.217h-31.225a2 2 0 0 0-1.982 1.737l-11.088 83.619c-.144 1.089-1.125 1.783-2.111 1.297-7.55-3.719-31.392-23.715-30.501-85.153.013-.876-.556-1.588-1.432-1.622-4.939-.194-20.876-.039-30.543.096a1.98 1.98 0 0 0-1.946 1.794c-1.79 18.695-1.435 38.95 3.224 57.843" stroke="#222" stroke-width="4" stroke-linejoin="round"/><path d="M396.701 452.693c26.535 4.342 56.351 9.359 75.263-9.167 18.912-18.526 19.977-32.324 21.71-44.868 10.132-73.333 20.815-195.877 13.991-227.719-4.342-20.263-16.403-58.377-61.271-61.754-35.895-2.702-136.535 6.271-190.088 19.298-19.298 4.695-41.008 20.07-48.727 48.246-9.65 35.219-23.641 157.756-23.641 175.131 0 25.087 21.228 77.675 89.254 91.666 54.421 11.193 125.921 25.57 157.763 31.36 29.43 5.35 78.351-6.851 86.842-47.763 10.614-51.141 23.64-207.456 13.026-239.298" stroke="#222" stroke-width="4" stroke-linejoin="round"/><path d="M634.963 378.238c-15.746-4.217-26.612-20.175-29.49-43.299-.155-1.241-1.368-1.241-1.522 0-2.879 23.124-13.745 39.082-29.491 43.299-.842.227-.818 2.001.025 2.228 15.74 4.229 26.601 20.195 29.471 43.331.152 1.241 1.362 1.205 1.517-.036 2.878-23.128 13.744-39.086 29.49-43.303.842-.223.842-1.993 0-2.22ZM178.695 124.525c-10.087-3.006-17.048-14.38-18.892-30.861-.099-.885-.876-.885-.975 0-1.844 16.481-8.805 27.855-18.893 30.861-.539.162-.523 1.427.016 1.588 10.084 3.015 17.042 14.395 18.88 30.885.097.885.873.859.972-.026 1.844-16.484 8.805-27.858 18.892-30.864.54-.159.54-1.421 0-1.583Z" stroke="#1D1D1F" stroke-width="4" stroke-linecap="round" stroke-linejoin="round"/><path d="M543.367 112.079a7.72 7.72 0 1 1-3.599-6.528M116.052 248.726a7.72 7.72 0 1 1 7.055 2.407M252.724 492.942a7.72 7.72 0 1 1 1.554-7.291" stroke="#222" stroke-width="4" stroke-linecap="round"/></svg>