<svg width="92" height="92" fill="none" xmlns="http://www.w3.org/2000/svg"><path d="M0 44.16C0 23.368 0 12.972 6.44 6.44 12.88 0 23.276 0 44.16 0h3.68c20.792 0 31.188 0 37.72 6.44C92 12.88 92 23.276 92 44.16v3.68c0 20.792 0 31.188-6.44 37.72C79.12 92 68.724 92 47.84 92h-3.68c-20.792 0-31.188 0-37.72-6.44C0 79.12 0 68.724 0 47.84v-3.68Z" fill="#07F"/><path d="M48.944 66.24c-20.976 0-32.936-14.352-33.396-38.272h10.488c.368 17.572 8.096 25.024 14.26 26.496V27.968h9.936v15.18c6.072-.644 12.42-7.544 14.536-15.18h9.936c-1.656 9.384-8.556 16.284-13.432 19.136 4.876 2.3 12.788 8.28 15.732 19.228H66.148c-2.3-7.268-8.188-12.88-15.824-13.708V66.24h-1.38Z" fill="#fff"/></svg>